<mxfile host="app.diagrams.net" agent="Mozilla/5.0 (Windows NT 10.0; Win64; x64) AppleWebKit/537.36 (KHTML, like Gecko) Chrome/136.0.0.0 Safari/537.36 Edg/136.0.0.0" version="27.0.3">
  <diagram name="第 1 页" id="Ivtz1y3JbJTpl7jnr0I4">
    <mxGraphModel dx="1250" dy="688" grid="1" gridSize="10" guides="1" tooltips="1" connect="1" arrows="1" fold="1" page="1" pageScale="1" pageWidth="827" pageHeight="1169" math="0" shadow="0">
      <root>
        <mxCell id="0" />
        <mxCell id="1" parent="0" />
        <mxCell id="PWG7MVSQYjs1RkE0XGg9-1" value="" style="edgeStyle=orthogonalEdgeStyle;rounded=0;orthogonalLoop=1;jettySize=auto;html=1;labelBackgroundColor=none;fontColor=default;" edge="1" parent="1" source="PWG7MVSQYjs1RkE0XGg9-2" target="PWG7MVSQYjs1RkE0XGg9-4">
          <mxGeometry relative="1" as="geometry" />
        </mxCell>
        <mxCell id="PWG7MVSQYjs1RkE0XGg9-2" value="&lt;font style=&quot;font-size: 14px;&quot;&gt;开始&lt;/font&gt;" style="strokeWidth=2;html=1;shape=mxgraph.flowchart.terminator;whiteSpace=wrap;labelBackgroundColor=none;" vertex="1" parent="1">
          <mxGeometry x="136.25" y="200" width="97.5" height="50" as="geometry" />
        </mxCell>
        <mxCell id="PWG7MVSQYjs1RkE0XGg9-54" value="" style="edgeStyle=orthogonalEdgeStyle;rounded=0;orthogonalLoop=1;jettySize=auto;html=1;" edge="1" parent="1" source="PWG7MVSQYjs1RkE0XGg9-4" target="PWG7MVSQYjs1RkE0XGg9-53">
          <mxGeometry relative="1" as="geometry" />
        </mxCell>
        <mxCell id="PWG7MVSQYjs1RkE0XGg9-4" value="&lt;font style=&quot;font-size: 14px;&quot;&gt;ESP32获取设备数据&lt;/font&gt;" style="whiteSpace=wrap;html=1;strokeWidth=2;labelBackgroundColor=none;" vertex="1" parent="1">
          <mxGeometry x="110" y="290" width="150" height="60" as="geometry" />
        </mxCell>
        <mxCell id="PWG7MVSQYjs1RkE0XGg9-34" style="edgeStyle=orthogonalEdgeStyle;rounded=0;orthogonalLoop=1;jettySize=auto;html=1;exitX=0.5;exitY=1;exitDx=0;exitDy=0;" edge="1" parent="1">
          <mxGeometry relative="1" as="geometry">
            <mxPoint x="540" y="424" as="sourcePoint" />
            <mxPoint x="540" y="424" as="targetPoint" />
          </mxGeometry>
        </mxCell>
        <mxCell id="PWG7MVSQYjs1RkE0XGg9-60" value="" style="edgeStyle=orthogonalEdgeStyle;rounded=0;orthogonalLoop=1;jettySize=auto;html=1;" edge="1" parent="1" source="PWG7MVSQYjs1RkE0XGg9-53" target="PWG7MVSQYjs1RkE0XGg9-59">
          <mxGeometry relative="1" as="geometry" />
        </mxCell>
        <mxCell id="PWG7MVSQYjs1RkE0XGg9-53" value="&lt;font style=&quot;font-size: 14px;&quot;&gt;上报OneNET&lt;/font&gt;&lt;div&gt;&lt;font style=&quot;font-size: 14px;&quot;&gt;物联网云平台&lt;/font&gt;&lt;/div&gt;" style="whiteSpace=wrap;html=1;strokeWidth=2;labelBackgroundColor=none;" vertex="1" parent="1">
          <mxGeometry x="110" y="390" width="150" height="60" as="geometry" />
        </mxCell>
        <mxCell id="PWG7MVSQYjs1RkE0XGg9-62" value="" style="edgeStyle=orthogonalEdgeStyle;rounded=0;orthogonalLoop=1;jettySize=auto;html=1;" edge="1" parent="1" source="PWG7MVSQYjs1RkE0XGg9-59" target="PWG7MVSQYjs1RkE0XGg9-61">
          <mxGeometry relative="1" as="geometry" />
        </mxCell>
        <mxCell id="PWG7MVSQYjs1RkE0XGg9-59" value="&lt;font style=&quot;font-size: 14px;&quot; face=&quot;Helvetica&quot;&gt;后端&lt;span style=&quot;white-space-collapse: preserve; color: rgba(0, 0, 0, 0.9); text-align: left; background-color: rgb(255, 255, 255);&quot;&gt;通过&lt;/span&gt;&lt;/font&gt;&lt;div&gt;&lt;span style=&quot;color: rgba(0, 0, 0, 0.9); text-align: left; white-space-collapse: preserve; background-color: rgb(255, 255, 255);&quot;&gt;&lt;font style=&quot;font-size: 14px;&quot; face=&quot;Helvetica&quot;&gt;Pulsar SDK消费数据&lt;/font&gt;&lt;/span&gt;&lt;/div&gt;&lt;div&gt;&lt;span style=&quot;color: rgba(0, 0, 0, 0.9); text-align: left; white-space-collapse: preserve; background-color: rgb(255, 255, 255);&quot;&gt;&lt;font style=&quot;font-size: 14px;&quot; face=&quot;Helvetica&quot;&gt;并存储在数据库&lt;/font&gt;&lt;/span&gt;&lt;/div&gt;" style="whiteSpace=wrap;html=1;strokeWidth=2;labelBackgroundColor=none;" vertex="1" parent="1">
          <mxGeometry x="112.5" y="485" width="145" height="70" as="geometry" />
        </mxCell>
        <mxCell id="PWG7MVSQYjs1RkE0XGg9-64" value="" style="edgeStyle=orthogonalEdgeStyle;rounded=0;orthogonalLoop=1;jettySize=auto;html=1;" edge="1" parent="1" source="PWG7MVSQYjs1RkE0XGg9-61" target="PWG7MVSQYjs1RkE0XGg9-63">
          <mxGeometry relative="1" as="geometry" />
        </mxCell>
        <mxCell id="PWG7MVSQYjs1RkE0XGg9-71" value="" style="edgeStyle=orthogonalEdgeStyle;rounded=0;orthogonalLoop=1;jettySize=auto;html=1;" edge="1" parent="1" source="PWG7MVSQYjs1RkE0XGg9-61" target="PWG7MVSQYjs1RkE0XGg9-70">
          <mxGeometry relative="1" as="geometry" />
        </mxCell>
        <mxCell id="PWG7MVSQYjs1RkE0XGg9-61" value="&lt;div&gt;&lt;span style=&quot;background-color: transparent; color: light-dark(rgb(0, 0, 0), rgb(255, 255, 255));&quot;&gt;&lt;font style=&quot;font-size: 14px;&quot;&gt;&lt;br&gt;&lt;/font&gt;&lt;/span&gt;&lt;/div&gt;&lt;div&gt;&lt;font style=&quot;font-size: 14px;&quot;&gt;&lt;span style=&quot;background-color: transparent; color: light-dark(rgb(0, 0, 0), rgb(255, 255, 255));&quot;&gt;前端&lt;/span&gt;&lt;span style=&quot;white-space-collapse: preserve; color: rgba(0, 0, 0, 0.9); text-align: left; background-color: rgb(255, 255, 255);&quot;&gt;以&lt;/span&gt;&lt;span style=&quot;white-space-collapse: preserve; color: rgba(0, 0, 0, 0.9); text-align: left; background-color: rgb(255, 255, 255);&quot;&gt;&lt;font face=&quot;Helvetica&quot;&gt;RestfulAPI&lt;/font&gt;&lt;/span&gt;&lt;span style=&quot;white-space-collapse: preserve; color: rgba(0, 0, 0, 0.9); text-align: left; background-color: rgb(255, 255, 255);&quot;&gt;的&lt;/span&gt;&lt;/font&gt;&lt;/div&gt;&lt;div&gt;&lt;font style=&quot;font-size: 14px;&quot;&gt;&lt;span style=&quot;color: rgba(0, 0, 0, 0.9); text-align: left; white-space-collapse: preserve; background-color: rgb(255, 255, 255);&quot;&gt;方式发送&lt;/span&gt;&lt;span style=&quot;color: rgba(0, 0, 0, 0.9); text-align: left; white-space-collapse: preserve; background-color: rgb(255, 255, 255);&quot;&gt;&lt;font face=&quot;Helvetica&quot;&gt;HTTP&lt;/font&gt;&lt;/span&gt;&lt;/font&gt;&lt;/div&gt;&lt;div&gt;&lt;font style=&quot;font-size: 14px;&quot;&gt;&lt;font style=&quot;&quot;&gt;&lt;span style=&quot;color: rgba(0, 0, 0, 0.9); text-align: left; white-space-collapse: preserve; background-color: rgb(255, 255, 255);&quot;&gt;请求&lt;/span&gt;&lt;/font&gt;&lt;span style=&quot;background-color: light-dark(rgb(255, 255, 255), rgb(18, 18, 18)); color: light-dark(rgba(0, 0, 0, 0.9), rgb(237, 237, 237)); text-align: left; white-space-collapse: preserve;&quot;&gt;数据&lt;/span&gt;&lt;/font&gt;&lt;/div&gt;" style="rhombus;whiteSpace=wrap;html=1;strokeWidth=2;labelBackgroundColor=none;" vertex="1" parent="1">
          <mxGeometry x="320" y="471.25" width="190" height="97.5" as="geometry" />
        </mxCell>
        <mxCell id="PWG7MVSQYjs1RkE0XGg9-66" value="" style="edgeStyle=orthogonalEdgeStyle;rounded=0;orthogonalLoop=1;jettySize=auto;html=1;" edge="1" parent="1" source="PWG7MVSQYjs1RkE0XGg9-63" target="PWG7MVSQYjs1RkE0XGg9-65">
          <mxGeometry relative="1" as="geometry" />
        </mxCell>
        <mxCell id="PWG7MVSQYjs1RkE0XGg9-63" value="&lt;span style=&quot;color: rgba(0, 0, 0, 0.9); text-align: left; white-space-collapse: preserve; background-color: rgb(255, 255, 255);&quot;&gt;&lt;font face=&quot;Helvetica&quot; style=&quot;font-size: 14px;&quot;&gt;后端响应前端&lt;/font&gt;&lt;/span&gt;&lt;div&gt;&lt;span style=&quot;color: rgba(0, 0, 0, 0.9); text-align: left; white-space-collapse: preserve; background-color: rgb(255, 255, 255);&quot;&gt;&lt;font face=&quot;Helvetica&quot; style=&quot;font-size: 14px;&quot;&gt;请求，返回数据&lt;/font&gt;&lt;/span&gt;&lt;/div&gt;" style="whiteSpace=wrap;html=1;strokeWidth=2;labelBackgroundColor=none;" vertex="1" parent="1">
          <mxGeometry x="340" y="370" width="150" height="60" as="geometry" />
        </mxCell>
        <mxCell id="PWG7MVSQYjs1RkE0XGg9-77" value="" style="edgeStyle=orthogonalEdgeStyle;rounded=0;orthogonalLoop=1;jettySize=auto;html=1;" edge="1" parent="1" source="PWG7MVSQYjs1RkE0XGg9-65" target="PWG7MVSQYjs1RkE0XGg9-69">
          <mxGeometry relative="1" as="geometry" />
        </mxCell>
        <mxCell id="PWG7MVSQYjs1RkE0XGg9-65" value="&lt;font style=&quot;font-size: 14px;&quot;&gt;&lt;span style=&quot;white-space-collapse: preserve; color: rgba(0, 0, 0, 0.9); text-align: left; background-color: rgb(255, 255, 255);&quot;&gt;&lt;font face=&quot;Helvetica&quot; style=&quot;&quot;&gt;前端&lt;/font&gt;&lt;/span&gt;&lt;span style=&quot;white-space-collapse: preserve; color: rgba(0, 0, 0, 0.9); text-align: left; background-color: rgb(255, 255, 255);&quot;&gt;实时渲染,&lt;/span&gt;&lt;/font&gt;&lt;div&gt;&lt;span style=&quot;white-space-collapse: preserve; background-color: rgb(255, 255, 255); color: rgba(0, 0, 0, 0.9); text-align: left;&quot;&gt;&lt;font style=&quot;font-size: 14px;&quot;&gt;在控制台进行&lt;/font&gt;&lt;/span&gt;&lt;/div&gt;&lt;div&gt;&lt;span style=&quot;white-space-collapse: preserve; background-color: rgb(255, 255, 255); color: rgba(0, 0, 0, 0.9); text-align: left;&quot;&gt;&lt;font style=&quot;font-size: 14px;&quot;&gt;数据可视化&lt;/font&gt;&lt;/span&gt;&lt;/div&gt;" style="whiteSpace=wrap;html=1;strokeWidth=2;labelBackgroundColor=none;" vertex="1" parent="1">
          <mxGeometry x="335" y="265" width="160" height="65" as="geometry" />
        </mxCell>
        <mxCell id="PWG7MVSQYjs1RkE0XGg9-69" value="&lt;font style=&quot;font-size: 14px;&quot;&gt;结束&lt;/font&gt;" style="strokeWidth=2;html=1;shape=mxgraph.flowchart.terminator;whiteSpace=wrap;" vertex="1" parent="1">
          <mxGeometry x="550" y="272.5" width="97" height="50" as="geometry" />
        </mxCell>
        <mxCell id="PWG7MVSQYjs1RkE0XGg9-79" value="" style="edgeStyle=orthogonalEdgeStyle;rounded=0;orthogonalLoop=1;jettySize=auto;html=1;" edge="1" parent="1" source="PWG7MVSQYjs1RkE0XGg9-70">
          <mxGeometry relative="1" as="geometry">
            <mxPoint x="415" y="568.75" as="targetPoint" />
            <Array as="points">
              <mxPoint x="618" y="590" />
              <mxPoint x="415" y="590" />
            </Array>
          </mxGeometry>
        </mxCell>
        <mxCell id="PWG7MVSQYjs1RkE0XGg9-70" value="&lt;font style=&quot;font-size: 14px;&quot;&gt;重复请求数据&lt;/font&gt;" style="whiteSpace=wrap;html=1;strokeWidth=2;labelBackgroundColor=none;" vertex="1" parent="1">
          <mxGeometry x="558" y="490" width="120" height="60" as="geometry" />
        </mxCell>
        <mxCell id="PWG7MVSQYjs1RkE0XGg9-74" value="&lt;font style=&quot;font-size: 14px;&quot;&gt;N&lt;/font&gt;" style="text;html=1;align=center;verticalAlign=middle;whiteSpace=wrap;rounded=0;" vertex="1" parent="1">
          <mxGeometry x="503" y="491" width="60" height="30" as="geometry" />
        </mxCell>
        <mxCell id="PWG7MVSQYjs1RkE0XGg9-75" value="&lt;font style=&quot;font-size: 14px;&quot;&gt;Y&lt;/font&gt;" style="text;html=1;align=center;verticalAlign=middle;whiteSpace=wrap;rounded=0;" vertex="1" parent="1">
          <mxGeometry x="372" y="439" width="60" height="30" as="geometry" />
        </mxCell>
      </root>
    </mxGraphModel>
  </diagram>
</mxfile>
